<svg xmlns="http://www.w3.org/2000/svg" viewBox="0 0 573.49 661.45"><defs><style>.cls-1{fill:#cfedfb;}.cls-1,.cls-2,.cls-3,.cls-4,.cls-5,.cls-6,.cls-7{fill-rule:evenodd;}.cls-3{fill:#ffd65b;}.cls-4{fill:#f69173;}.cls-5{fill:#d1e287;}.cls-6{fill:#8dd7f7;}.cls-7{fill:#b6e4fa;}.cls-8{fill:#5b6072;}.cls-9{fill:#707487;}.cls-10{fill:#d7deed;}.cls-11{fill:#ff7979;}.cls-12{fill:#80af52;}.cls-13{fill:#ffebbe;}.cls-14{fill:#d8f2f1;}.cls-15{fill:#000729;}</style></defs><title>Asset 1</title><g id="Layer_2" data-name="Layer 2"><g id="_277" data-name="277"><path class="cls-1" d="M288.85,635.87c141.9,0,257.48-80.2,262.83-180.48H26c5.35,100.28,121,180.48,262.83,180.48Z"/><path class="cls-2" d="M74.36,450.38H559.09a5.07,5.07,0,0,1,5.06,5h0a5,5,0,0,1-5.06,4.95H74.36a5,5,0,0,1-5.07-4.95h0a5.07,5.07,0,0,1,5.07-5Zm-26.7,0h-29a5.07,5.07,0,0,0-5.07,5h0a5,5,0,0,0,5.07,4.95h29a5,5,0,0,0,5.07-4.95h0a5.07,5.07,0,0,0-5.07-5Z"/><path class="cls-3" d="M11.05,507.45a10.79,10.79,0,1,0,0-21.58,10.79,10.79,0,1,0,0,21.58Z"/><path class="cls-4" d="M562.45,432.36a10.79,10.79,0,1,0-11.05-10.79,10.92,10.92,0,0,0,11.05,10.79Z"/><path class="cls-5" d="M177.77,661.45a5.4,5.4,0,1,0-5.53-5.4,5.51,5.51,0,0,0,5.53,5.4Z"/><path class="cls-6" d="M529.31,592.76a10.79,10.79,0,1,0-11-10.79,10.93,10.93,0,0,0,11,10.79Z"/><path class="cls-7" d="M491,568.18c-48.22,41.32-120.88,67.69-202.19,67.69s-154-26.37-202.19-67.69c-31.09-30.37,5.7-76.47,45-53.84,57.51,33.1,196.1,113.35,359.34,53.84Z"/><path class="cls-5" d="M100.67,85.81a5.37,5.37,0,1,0-5.47-5.39,5.43,5.43,0,0,0,5.47,5.39Z"/><path class="cls-3" d="M549.63,251.61a5.37,5.37,0,1,0-5.52-5.4,5.47,5.47,0,0,0,5.52,5.4Z"/><path class="cls-4" d="M23.35,258.51a5.4,5.4,0,1,0-5.53-5.4,5.51,5.51,0,0,0,5.53,5.4Z"/><path class="cls-6" d="M356.78,21.58a10.94,10.94,0,0,0,11.05-10.79,11,11,0,0,0-22.09,0,10.93,10.93,0,0,0,11,10.79Z"/><path class="cls-8" d="M373.14,347.74c0,1.93-2.9,4.82-4.83,4.82a5.17,5.17,0,0,1-4.83-4.82,4.56,4.56,0,0,1,4.83-4.83A5.17,5.17,0,0,1,373.14,347.74Z"/><path class="cls-8" d="M433,278.21c1.93,0,3.86,2.9,3.86,4.83,0,2.9-1.93,4.83-3.86,4.83a4.56,4.56,0,0,1-4.83-4.83A5.17,5.17,0,0,1,433,278.21Z"/><path class="cls-8" d="M496.74,342.91a4.56,4.56,0,0,1,4.83,4.83,5.17,5.17,0,0,1-4.83,4.82c-1.93,0-3.86-2.89-3.86-4.82C492.88,344.84,494.81,342.91,496.74,342.91Z"/><path class="cls-8" d="M433,407.61c1.93,0,3.86,1.93,3.86,4.83A4.15,4.15,0,0,1,433,416.3c-2.9,0-4.83-1.93-4.83-3.86A4.56,4.56,0,0,1,433,407.61Z"/><path class="cls-8" d="M446.53,248.27v18.54a77.94,77.94,0,0,0-12.48-1.14H432a81.41,81.41,0,0,0-13.44,1.26V248.27Z"/><polygon class="cls-9" points="455.22 233.79 455.22 248.27 446.53 248.27 418.52 248.27 409.83 248.27 409.83 233.79 426.25 233.79 455.22 233.79"/><path class="cls-10" d="M446.53,266.81c38.1,6.54,67.59,40.25,67.59,80.93A81,81,0,0,1,433,428.85a81.93,81.93,0,0,1-71.22-40.48c-.33-.57-.65-1.14-1-1.71-.17-.32-.34-.65-.51-1s-.32-.6-.47-.9a81,81,0,0,1-8.32-27.24c-.07-.6-.14-1.2-.2-1.8-.09-.9-.17-1.82-.22-2.75,0-.43-.06-.87-.08-1.31,0-.61,0-1.23-.06-1.84s0-1.42,0-2.12,0-1.42,0-2.12,0-1.22.06-1.82q0-.53.06-1.05c0-.35,0-.72.07-1.08,0-.19,0-.39.05-.58,0-.59.09-1.17.15-1.76s.15-1.37.23-2.06a82,82,0,0,1,35.48-57.59,2.07,2.07,0,0,0,.24-.17,77.94,77.94,0,0,1,31.22-11.92A79.71,79.71,0,0,1,432,265.67h2.09c4.36.13,8,1,12.48,1.92Zm55,80.93a4.56,4.56,0,0,0-4.83-4.83c-1.93,0-3.86,1.93-3.86,4.83,0,1.93,1.93,4.82,3.86,4.82A5.17,5.17,0,0,0,501.57,347.74ZM436.87,283c0-1.93-1.93-4.83-3.86-4.83a5.17,5.17,0,0,0-4.83,4.83,4.56,4.56,0,0,0,4.83,4.83C434.94,287.87,436.87,285.94,436.87,283Zm0,129.4c0-2.9-1.93-4.83-3.86-4.83a4.56,4.56,0,0,0-4.83,4.83c0,1.93,1.93,3.86,4.83,3.86A4.15,4.15,0,0,0,436.87,412.44Zm-68.56-59.88c1.93,0,4.83-2.89,4.83-4.82a5.17,5.17,0,0,0-4.83-4.83,4.56,4.56,0,0,0-4.83,4.83A5.17,5.17,0,0,0,368.31,352.56Z"/><polygon class="cls-11" points="206.07 380.32 206.07 409.54 164.56 409.54 164.56 368.01 206.07 368.01 206.07 380.32"/><polygon class="cls-11" points="206.07 226.78 206.07 251.17 164.56 251.17 164.56 209.65 206.07 209.65 206.07 226.78"/><rect class="cls-12" x="164.55" y="288.83" width="41.52" height="41.53"/><rect class="cls-13" x="164.55" y="130.46" width="41.52" height="41.52"/><polygon class="cls-10" points="105.65 408.57 85.37 408.57 85.37 41.62 379.9 41.62 379.9 87.01 131.72 87.01 131.72 408.57 105.65 408.57"/><path class="cls-14" d="M206.07,380.32V368H164.55v41.53h41.52Zm0-153.54V209.65H164.55v41.52h41.52ZM426.25,428.85V453H131.72V87H426.25V233.79H409.83v14.48h8.69v18.66a81.78,81.78,0,0,0-31.22,12.58,2.07,2.07,0,0,1-.24.17,81,81,0,0,0-35.48,57.59c-.08.69-.17,1.38-.23,2.06s-.11,1.17-.15,1.76c0,.19,0,.39-.05.58,0,.36-.06.73-.07,1.08s-.05.7-.06,1.05c0,.6,0,1.2-.06,1.82s0,1.4,0,2.12,0,1.42,0,2.12,0,1.23.06,1.84c0,.43,0,.88.08,1.31,0,.93.13,1.85.22,2.75.05.6.12,1.2.2,1.8a79.61,79.61,0,0,0,8.32,27.24c.14.3.31.6.47.9l.51,1c.31.57.63,1.15,1,1.71A80.68,80.68,0,0,0,426.25,428.85ZM206.07,330.36V288.83H164.55v41.53Zm0-158.37V130.46H164.55V172Z"/><path class="cls-15" d="M426.25,455.89H131.72a2.9,2.9,0,0,1-2.9-2.9V408.57a2.9,2.9,0,0,1,5.8,0V450.1H423.35V431.51a83.57,83.57,0,0,1-64.07-41.69c-.33-.55-.67-1.17-1-1.78l-.54-1-.48-.93a84,84,0,0,1-8.62-28.21c-.07-.64-.14-1.26-.2-1.87a2.9,2.9,0,1,1,5.77-.55c.05.58.12,1.16.19,1.74a77.89,77.89,0,0,0,8,26.25l.45.88.47.86c.32.6.62,1.13.93,1.66A77.8,77.8,0,0,0,426.44,426a2.9,2.9,0,0,1,2.7,2.89V453A2.89,2.89,0,0,1,426.25,455.89Z"/><path class="cls-15" d="M351.1,355.91a2.9,2.9,0,0,1-2.89-2.71v-.11c0-.42-.05-.84-.07-1.27a2.89,2.89,0,1,1,5.78-.25c0,.38,0,.76.07,1.14v.11a2.88,2.88,0,0,1-2.7,3.08Z"/><path class="cls-15" d="M351,352.76a2.89,2.89,0,0,1-2.89-2.81c0-.74,0-1.48,0-2.21s0-1.48,0-2.21a2.9,2.9,0,0,1,2.89-2.82H351a2.91,2.91,0,0,1,2.81,3c0,.68,0,1.36,0,2.05s0,1.36,0,2a2.9,2.9,0,0,1-2.81,3Z"/><path class="cls-15" d="M351,346.69h-.08a2.89,2.89,0,0,1-2.81-3c0-.37,0-.74.06-1.12s0-.77.07-1.15a2.89,2.89,0,1,1,5.77.47c0,.3,0,.62,0,.92,0,.06,0,.11,0,.17,0,.29,0,.59-.05.88A2.9,2.9,0,0,1,351,346.69Z"/><path class="cls-15" d="M351.2,344H351a2.9,2.9,0,0,1-2.71-3.08c.05-.63.1-1.26.18-1.89s.14-1.37.23-2.09a83.74,83.74,0,0,1,36.75-59.65,2.9,2.9,0,1,1,3.2,4.83,78,78,0,0,0-34.2,55.54c-.08.65-.17,1.3-.22,1.95s-.12,1.16-.15,1.7A2.9,2.9,0,0,1,351.2,344Z"/><path class="cls-15" d="M387.3,282.41a2.9,2.9,0,0,1-1.58-5.32,80.35,80.35,0,0,1,32.37-12.37,2.9,2.9,0,1,1,.86,5.73,74.6,74.6,0,0,0-30.06,11.49A2.89,2.89,0,0,1,387.3,282.41Z"/><path class="cls-15" d="M426.25,236.69a2.9,2.9,0,0,1-2.9-2.9V89.91H379.9a2.9,2.9,0,1,1,0-5.8h46.35a2.89,2.89,0,0,1,2.89,2.9V233.79A2.89,2.89,0,0,1,426.25,236.69Z"/><path class="cls-15" d="M206.07,174.89H164.55a2.89,2.89,0,0,1-2.89-2.9V130.46a2.89,2.89,0,0,1,2.89-2.9h41.52a2.9,2.9,0,0,1,2.91,2.9V172A2.9,2.9,0,0,1,206.07,174.89Zm-38.62-5.8h35.73V133.36H167.45Z"/><path class="cls-15" d="M206.07,254.07H164.55a2.89,2.89,0,0,1-2.89-2.9V209.65a2.89,2.89,0,0,1,2.89-2.9h41.52a2.9,2.9,0,0,1,2.91,2.9v41.52A2.9,2.9,0,0,1,206.07,254.07Zm-38.62-5.8h35.73V212.54H167.45Z"/><path class="cls-15" d="M206.07,333.25H164.55a2.89,2.89,0,0,1-2.89-2.89V288.83a2.89,2.89,0,0,1,2.89-2.89h41.52a2.9,2.9,0,0,1,2.91,2.89v41.53A2.9,2.9,0,0,1,206.07,333.25Zm-38.62-5.79h35.73V291.73H167.45Z"/><path class="cls-15" d="M206.07,412.44H164.55a2.89,2.89,0,0,1-2.89-2.9V368a2.89,2.89,0,0,1,2.89-2.89h41.52A2.9,2.9,0,0,1,209,368v41.53A2.9,2.9,0,0,1,206.07,412.44Zm-38.62-5.8h35.73V370.91H167.45Z"/><path class="cls-15" d="M334.51,146.88H224.43a2.9,2.9,0,1,1,0-5.8H334.51a2.9,2.9,0,1,1,0,5.8Z"/><path class="cls-15" d="M294,161.37H224.43a2.9,2.9,0,0,1,0-5.8H294a2.9,2.9,0,1,1,0,5.8Z"/><path class="cls-15" d="M334.51,226.06H224.43a2.9,2.9,0,1,1,0-5.79H334.51a2.9,2.9,0,1,1,0,5.79Z"/><path class="cls-15" d="M294,240.55H224.43a2.9,2.9,0,0,1,0-5.8H294a2.9,2.9,0,1,1,0,5.8Z"/><path class="cls-15" d="M334.51,305.25H224.43a2.9,2.9,0,1,1,0-5.79H334.51a2.9,2.9,0,1,1,0,5.79Z"/><path class="cls-15" d="M294,319.73H224.43a2.9,2.9,0,1,1,0-5.79H294a2.9,2.9,0,1,1,0,5.79Z"/><path class="cls-15" d="M334.51,384.43H224.43a2.9,2.9,0,1,1,0-5.79H334.51a2.9,2.9,0,1,1,0,5.79Z"/><path class="cls-15" d="M294,398.92H224.43a2.9,2.9,0,0,1,0-5.8H294a2.9,2.9,0,1,1,0,5.8Z"/><path class="cls-15" d="M131.72,411.47H85.37a2.9,2.9,0,0,1-2.9-2.9V41.62a2.89,2.89,0,0,1,2.9-2.89H379.9a2.89,2.89,0,0,1,2.89,2.89V87a2.89,2.89,0,0,1-2.89,2.9H134.62V408.57A2.9,2.9,0,0,1,131.72,411.47Zm-43.45-5.79h40.55V87a2.9,2.9,0,0,1,2.9-2.9H377V44.52H88.27Z"/><path class="cls-15" d="M433,431.75c-30.44,0-58.69-16.07-73.73-41.92l-1-1.76-.7-1.31c-.12-.23-.25-.47-.36-.71a82.54,82.54,0,0,1-8.59-28.15c-.08-.61-.15-1.26-.2-1.91-.11-.9-.18-1.86-.23-2.78,0-.43-.06-.87-.08-1.3l2.89-.26-2.89.14c0-.63-.06-1.26-.07-1.88s0-1.44,0-2.17,0-1.48,0-2.21c0-.56,0-1.15.06-1.75v-.12c0-.35,0-.75.06-1.15s0-.69.07-1.07c0-.14,0-.37.05-.6,0-.59.1-1.2.16-1.8s.15-1.42.24-2.13a84.9,84.9,0,0,1,36.73-59.63l.09-.06a1.53,1.53,0,0,1,.16-.11,84.88,84.88,0,0,1,46.23-14.34,3.75,3.75,0,0,1,1.1.2,3.37,3.37,0,0,1,1.06-.19A79.83,79.83,0,0,1,447,264a84.17,84.17,0,0,1,49.81,28.64A85.41,85.41,0,0,1,517,347.74,84.11,84.11,0,0,1,433,431.75ZM388.65,282.1a79.18,79.18,0,0,0-34.19,55.54c-.09.65-.16,1.32-.23,2s-.1,1.11-.14,1.66c0,0,0,.07,0,.1s0,.29,0,.43c0,.43-.05.77-.07,1.1s0,.68-.05,1v.17c0,.53-.05,1.07-.06,1.61,0,.71,0,1.4,0,2.08s0,1.36,0,2,0,1.17.06,1.74v.13c0,.36,0,.74.07,1.1v.11c0,.83.12,1.7.22,2.6,0,.62.11,1.17.18,1.73a77.09,77.09,0,0,0,8,26.28c.13.25.21.42.31.59l.65,1.21c.3.54.61,1.1.93,1.65,14,24.08,40.32,39,68.71,39a78.31,78.31,0,0,0,78.22-78.22c0-38.76-27.42-71.59-65.19-78.07a75.36,75.36,0,0,0-12-1.1,2.74,2.74,0,0,1-1-.2,2.78,2.78,0,0,1-1,.19,79.26,79.26,0,0,0-13,1.23A78.39,78.39,0,0,0,389,281.88Z"/><path class="cls-15" d="M446.53,270.48a2.75,2.75,0,0,1-.57-.05l-2-.41a56.28,56.28,0,0,0-10-1.45l-1,0H432a79,79,0,0,0-12.86,1.86,2.9,2.9,0,0,1-3.48-2.83V248.27a2.9,2.9,0,0,1,5.8,0v15.79a67.64,67.64,0,0,1,10.46-1.29H433l1.11,0a55,55,0,0,1,9.51,1.26V248.27a2.9,2.9,0,0,1,5.8,0v19.32a2.88,2.88,0,0,1-2.9,2.89Z"/><path class="cls-15" d="M469.71,350.64H433a2.9,2.9,0,0,1-1.81-.64l-29-23.18a2.9,2.9,0,1,1,3.62-4.52L434,344.84h35.69a2.9,2.9,0,0,1,0,5.8Z"/><path class="cls-15" d="M455.22,251.17H409.83a2.89,2.89,0,0,1-2.89-2.9V233.79a2.89,2.89,0,0,1,2.89-2.9h45.39a2.89,2.89,0,0,1,2.89,2.9v14.48A2.89,2.89,0,0,1,455.22,251.17Zm-42.49-5.79h39.59v-8.69H412.73Z"/><path class="cls-15" d="M433,290.76a7.47,7.47,0,0,1-7.73-7.72,8,8,0,0,1,7.73-7.73c3.92,0,6.76,4.62,6.76,7.73C439.77,287.29,436.73,290.76,433,290.76Zm-.16-9.64a2.46,2.46,0,0,0-1.78,1.92A1.7,1.7,0,0,0,433,285c.23,0,1-.58,1-1.93A3.37,3.37,0,0,0,432.85,281.12Z"/><path class="cls-15" d="M496.74,355.46c-3.92,0-6.76-4.61-6.76-7.72,0-4.26,3-7.73,6.76-7.73a7.48,7.48,0,0,1,7.73,7.73A8,8,0,0,1,496.74,355.46Zm0-9.66c-.23,0-1,.58-1,1.94a3.33,3.33,0,0,0,1.13,1.92,2.48,2.48,0,0,0,1.77-1.92A1.7,1.7,0,0,0,496.74,345.8Z"/><path class="cls-15" d="M433,419.2c-4.26,0-7.73-3-7.73-6.76a7.48,7.48,0,0,1,7.73-7.73c3.72,0,6.76,3.47,6.76,7.73A7,7,0,0,1,433,419.2Zm0-8.7a1.71,1.71,0,0,0-1.94,1.94c0,.23.59,1,1.94,1a1.4,1.4,0,0,0,1-1C434,411.09,433.24,410.5,433,410.5Z"/><path class="cls-15" d="M368.31,355.46a8,8,0,0,1-7.73-7.72,7.48,7.48,0,0,1,7.73-7.73,8,8,0,0,1,7.72,7.73C376,351.27,371.84,355.46,368.31,355.46Zm0-9.66a1.7,1.7,0,0,0-1.93,1.94c0,.45.76,1.86,1.85,1.93a4.49,4.49,0,0,0,2-2C370.17,346.57,368.76,345.8,368.31,345.8Z"/><path class="cls-15" d="M320,475.21H101.79a2.9,2.9,0,0,1,0-5.8H320a2.9,2.9,0,1,1,0,5.8Z"/><path class="cls-15" d="M380.86,488.72H229.25a2.9,2.9,0,1,1,0-5.79H380.86a2.9,2.9,0,1,1,0,5.79Z"/><path class="cls-15" d="M414.66,488.72H396.31a2.9,2.9,0,0,1,0-5.79h18.35a2.9,2.9,0,1,1,0,5.79Z"/><path class="cls-15" d="M164.55,488.72H93.09a2.9,2.9,0,0,1,0-5.79h71.46a2.9,2.9,0,1,1,0,5.79Z"/><path class="cls-15" d="M187.73,240.55a2.89,2.89,0,0,1-2.34-1.19l-7.73-10.63a2.9,2.9,0,0,1,4.69-3.41l6.17,8.5,23.81-14.11a2.89,2.89,0,0,1,2.95,5l-26.07,15.46A2.94,2.94,0,0,1,187.73,240.55Z"/><path class="cls-15" d="M187.73,394.09a2.89,2.89,0,0,1-2.34-1.19l-7.73-10.63a2.9,2.9,0,0,1,4.69-3.4l6.17,8.49,23.81-14.11a2.89,2.89,0,0,1,2.95,5l-26.07,15.45A2.85,2.85,0,0,1,187.73,394.09Z"/><path class="cls-15" d="M105.65,411.47a2.9,2.9,0,0,1-2.9-2.9V198.06a2.9,2.9,0,1,1,5.8,0V408.57A2.9,2.9,0,0,1,105.65,411.47Z"/><path class="cls-15" d="M442.67,207.72a2.9,2.9,0,0,1-2.9-2.9V97.63a2.9,2.9,0,0,1,5.79,0V204.82A2.9,2.9,0,0,1,442.67,207.72Z"/></g></g></svg>