<svg xmlns="http://www.w3.org/2000/svg" viewBox="0 0 389.1 400"><defs><style>.cls-1{opacity:0.12;}.cls-2{fill:#fff;}.cls-3{fill:#1590cc;}.cls-4{fill:#4f4f4f;}.cls-5{fill:#404040;}.cls-6{fill:#8f8f8f;}.cls-7{fill:red;opacity:0.4;}</style></defs><title>scanner</title><g id="Layer_2" data-name="Layer 2"><g id="Ñëîé_4" data-name="Ñëîé 4"><path class="cls-1" d="M224.17,144.1c-1.57-1-4.8-.73-7.21.68L2.36,271.11C0,272.53-.73,274.52.85,275.56l101.23,66.78c1.57,1,4.8.73,7.21-.69l214.6-126.32c2.41-1.42,3.08-3.42,1.51-4.45Z"/><polygon class="cls-2" points="118.71 317.56 328.69 196.33 328.69 25.61 118.71 146.84 118.71 317.56"/><path class="cls-3" d="M340.93.65,106.48,136a10.55,10.55,0,0,0-4.77,8.26v195.5c0,3,2.14,4.27,4.77,2.75L340.93,207.16a10.55,10.55,0,0,0,4.77-8.26V3.4C345.7.36,343.56-.87,340.93.65ZM326.62,193.4,120.79,312.23V149.78L326.62,30.94Z"/><path class="cls-4" d="M141,147.05a9.94,9.94,0,0,0-4.51,7.81V280.73c0,2.87,2,4,4.51,2.6a10,10,0,0,0,4.5-7.81V149.65C145.52,146.78,143.51,145.61,141,147.05Z"/><path class="cls-4" d="M161.68,135.12a10,10,0,0,0-4.51,7.81v98.33c0,2.87,2,4,4.51,2.6a10,10,0,0,0,4.51-7.81V137.72C166.19,134.84,164.17,133.68,161.68,135.12Z"/><path class="cls-4" d="M207.63,108.59a9.94,9.94,0,0,0-4.5,7.81v98.33c0,2.87,2,4,4.5,2.6a10,10,0,0,0,4.51-7.81V111.19C212.14,108.31,210.12,107.15,207.63,108.59Z"/><path class="cls-4" d="M185,121.66l-7,4a10,10,0,0,0-4.51,7.81v98.33c0,2.87,2,4,4.51,2.6l7-4a10,10,0,0,0,4.51-7.81V124.27C189.49,121.39,187.47,120.23,185,121.66Z"/><path class="cls-4" d="M234.1,93.3l-5.95,3.44a10,10,0,0,0-4.51,7.81v98.33c0,2.88,2,4,4.51,2.6l5.95-3.43a10,10,0,0,0,4.51-7.81V95.91C238.61,93,236.6,91.86,234.1,93.3Z"/><path class="cls-4" d="M257.11,80a10,10,0,0,0-4.51,7.81v98.33c0,2.88,2,4,4.51,2.6a10,10,0,0,0,4.51-7.81V82.62C261.62,79.75,259.6,78.58,257.11,80Z"/><path class="cls-4" d="M285.68,63.53l-9,5.2a10,10,0,0,0-4.51,7.81v98.33c0,2.88,2,4,4.51,2.61l9-5.21a10,10,0,0,0,4.51-7.81V66.13C290.19,63.25,288.17,62.09,285.68,63.53Z"/><path class="cls-4" d="M306.35,51.59a10,10,0,0,0-4.51,7.81V185.27c0,2.88,2,4,4.51,2.61a10,10,0,0,0,4.5-7.81V54.2C310.85,51.32,308.84,50.16,306.35,51.59Z"/><path class="cls-5" d="M378.17,168.53h0c-9.73-5.32-30.39-16.64-40.25-14s-72.82,30.13-74.39,56.18,3.14,41.16,20.7,51.6c5.62,4.59,13.19,6,17.66,16.73,7.75,18.6,8.64,41,4.48,73.21-2.49,19.36-.82,27.49,4.62,35.16,3.63,5.12,11.55,13.37,22.17,11.82,15-14.69,18.15-43.07,14-70.52s-3.26-50.85,4.48-78.39,45.76-44.72,35.83-70.67C385.24,173.86,381.87,170.5,378.17,168.53Z"/><path class="cls-4" d="M339.33,189.85c-34.35,19.83-49.75,31.55-49.75,59.33s17.13,18.36,24.87,37,8.65,41,4.49,73.21,3.26,47.56,20.39,37.67,24.54-33.76,20.38-61.21-3.26-50.85,4.49-78.4,24.87-37.9,24.87-65.68S373.67,170,339.33,189.85Z"/><polygon class="cls-6" points="292.84 244.66 385.81 190.98 385.81 182.04 292.84 235.71 292.84 244.66"/><path class="cls-7" d="M337,103.14,122.69,225.39a8.78,8.78,0,0,0-4,6.88v5.47c0,2.53,1.78,3.56,4,2.29L337,117.78a8.8,8.8,0,0,0,4-6.88v-5.47C340.94,102.9,339.16,101.87,337,103.14Z"/><path class="cls-1" d="M336.75,358.39c-22-7.23-35.18-15.49-42.44-28.37s7.62-24.41-9.39-33.72-32.39,0-62.82,22.81-42.34,34-25.33,43.3,32.47-1.92,53.46.67,35.8,9.65,50.39,22.41,33.17,14.39,48.34,3S358.71,365.63,336.75,358.39Z"/></g></g></svg>